<?xml version="1.0" encoding="UTF-8" standalone="no"?>
<svg width="78px" height="76px" viewBox="0 0 78 76" version="1.1" xmlns="http://www.w3.org/2000/svg" xmlns:xlink="http://www.w3.org/1999/xlink">
    <!-- Generator: Sketch 3.8.3 (29802) - http://www.bohemiancoding.com/sketch -->
    <title>chat-1</title>
    <desc>Created with Sketch.</desc>
    <defs></defs>
    <g id="Page-1" stroke="none" stroke-width="1" fill="none" fill-rule="evenodd">
        <g id="Artboard-5" transform="translate(-11.000000, -12.000000)">
            <g id="chat-1" transform="translate(11.000000, 12.000000)">
                <g id="Layer_1">
                    <g id="Group">
                        <path d="M39.0318367,45.809595 L29.6877551,45.809595 C29.3534694,45.809595 29.0669388,45.524 29.0669388,45.1908058 L29.0669388,20.5027056 C29.0669388,20.1695115 29.3534694,19.8839165 29.6877551,19.8839165 L39.0318367,19.8839165 C39.3661224,19.8839165 39.6526531,20.1695115 39.6526531,20.5027056 L39.6526531,45.1908058 C39.6526531,45.524 39.3661224,45.809595 39.0318367,45.809595 L39.0318367,45.809595 Z" id="XMLID_284_" fill="#1771BD"></path>
                        <path d="M73.0493878,54.0125177 C73.3359184,53.2667975 72.9857143,52.4417453 72.237551,52.1402839 C71.4893878,51.8546889 70.6616327,52.2037495 70.3591837,52.9494697 C69.2608163,55.7260877 66.5228571,57.5983215 63.5302041,57.5983215 L33.3330612,57.5983215 C32.9669388,57.5983215 32.6008163,57.741119 32.3302041,57.9949812 L18.544898,71.1482171 L18.544898,59.0262965 C18.544898,58.6455031 18.3857143,58.2805762 18.115102,58.0108476 C17.8444898,57.741119 17.4783673,57.5824551 17.0963265,57.5824551 L10.2195918,57.5824551 C6.17632653,57.5824551 2.88122449,54.2981127 2.88122449,50.2680501 L2.88122449,17.8530188 C2.88122449,13.8229562 6.17632653,10.5386138 10.2195918,10.5386138 L42.9318367,10.5386138 C43.7277551,10.5386138 44.3804082,9.88809186 44.3804082,9.09477244 C44.3804082,8.30145303 43.7277551,7.65093111 42.9318367,7.65093111 L10.2195918,7.65093111 C4.5844898,7.65093111 0,12.2204509 0,17.8371524 L0,50.2680501 C0,55.8847516 4.5844898,60.4542714 10.2195918,60.4542714 L15.6636735,60.4542714 L15.6636735,74.5118914 C15.6636735,75.0830814 16.0138776,75.6066722 16.5391837,75.8288017 C16.7142857,75.9081336 16.9212245,75.9398664 17.1122449,75.9398664 C17.4783673,75.9398664 17.8444898,75.7970689 18.115102,75.5432067 L33.9220408,60.4542714 L63.5461224,60.4542714 C67.7008163,60.4701378 71.5212245,57.8680501 73.0493878,54.0125177 L73.0493878,54.0125177 Z" id="Shape" fill="#000000"></path>
                        <path d="M77.8089796,24.4058372 C78.2387755,21.7244175 77.1244898,18.9953987 74.9755102,17.4563591 C73.7497959,16.5837077 72.3171429,16.1235825 70.8208163,16.1235825 L60.2669388,16.1235825 L60.2669388,8.60291441 C60.2669388,5.27097286 59.28,2.85928184 57.3379592,1.44717328 C54.2657143,-0.805853862 50.0632653,0.479323591 49.8881633,0.526922756 C49.2832653,0.717319415 48.8853061,1.27264301 48.8853061,1.89143215 L48.8853061,10.5703466 C48.8853061,17.250096 41.0693878,19.5348559 40.7510204,19.6300543 C40.7191837,19.6459207 40.6873469,19.6617871 40.6555102,19.6617871 C40.1779592,18.9319332 39.3502041,18.4400752 38.395102,18.4400752 L30.3085714,18.4400752 C28.8281633,18.4400752 27.6183673,19.6459207 27.6183673,21.1214948 L27.6183673,44.5561503 C27.6183673,46.0317244 28.8281633,47.2375699 30.3085714,47.2375699 L38.395102,47.2375699 C39.1432653,47.2375699 39.8118367,46.9361086 40.3053061,46.4442505 C41.5946939,47.729428 43.377551,48.5227474 45.3514286,48.5227474 L66.6502041,48.5227474 C71.4734694,48.5227474 74.5457143,45.9999916 75.1028571,41.6050021 L77.8089796,24.4058372 L77.8089796,24.4058372 Z M38.2040816,44.3657537 L30.5155102,44.3657537 L30.5155102,21.3277578 L38.2040816,21.3277578 L38.2040816,44.3657537 L38.2040816,44.3657537 Z M74.9595918,23.9615783 L72.237551,41.192476 L72.237551,41.2400752 C71.8714286,44.175357 69.9930612,45.6667975 66.6502041,45.6667975 L45.3514286,45.6667975 C42.9955102,45.6667975 41.0853061,43.7628309 41.0853061,41.4146054 L41.0853061,22.4542714 C41.2285714,22.4542714 41.3718367,22.4542714 41.515102,22.4066722 C41.9289796,22.2956075 51.7665306,19.455524 51.7665306,10.5703466 L51.7665306,3.06554489 C52.8171429,2.92274739 54.4408163,2.89101461 55.6506122,3.76366597 C56.8126531,4.62045094 57.3857143,6.23882255 57.3857143,8.60291441 L57.3857143,17.5674238 C57.3857143,18.3607432 58.0383673,19.0112651 58.8342857,19.0112651 L70.8367347,19.0112651 C71.7281633,19.0112651 72.5877551,19.2809937 73.3040816,19.8045846 C74.5616327,20.7089687 75.2142857,22.3432067 74.9595918,23.9615783 L74.9595918,23.9615783 Z" id="Shape" fill="#000000"></path>
                    </g>
                </g>
            </g>
        </g>
    </g>
</svg>