<?xml version="1.0" encoding="UTF-8" standalone="no"?>
<svg width="30px" height="25px" viewBox="0 0 30 25" version="1.1" xmlns="http://www.w3.org/2000/svg" xmlns:xlink="http://www.w3.org/1999/xlink">
    <!-- Generator: Sketch 3.8.3 (29802) - http://www.bohemiancoding.com/sketch -->
    <title>premium-services</title>
    <desc>Created with Sketch.</desc>
    <defs></defs>
    <g id="Page-1" stroke="none" stroke-width="1" fill="none" fill-rule="evenodd">
        <g id="Artboard-2" transform="translate(-286.000000, -1311.000000)" fill="#FFFFFF">
            <g id="service" transform="translate(0.000000, 1116.000000)">
                <g id="serv1" transform="translate(167.000000, 152.000000)">
                    <g id="premium-services" transform="translate(119.000000, 43.000000)">
                        <g id="Capa_1">
                            <g id="Group">
                                <path d="M27.8199006,2.98794399 C26.622167,2.98794399 25.6520875,4.05078017 25.6520875,5.35823072 C25.6520875,6.20873972 26.0612326,6.94918426 26.6774553,7.36993776 C25.3754672,9.33633474 23.5383101,11.6199022 21.6445527,12.2814292 C19.1525249,13.1526428 16.8291054,7.79843299 15.6853479,4.61646588 C16.533161,4.29539453 17.1506958,3.41901978 17.1506958,2.37952878 C17.1506958,1.07207824 16.1819284,0.0105023339 14.9880716,0.0105023339 C13.7967197,0.0105023339 12.8266998,1.07201823 12.8266998,2.37952878 C12.8266998,3.41901978 13.4429225,4.29413425 14.2920477,4.61646588 C13.1509145,7.79843299 10.83,13.1526428 8.33415507,12.2814292 C6.44296223,11.6199022 4.60192843,9.33633474 3.30256461,7.36993776 C3.91622266,6.94924428 4.32662028,6.21006001 4.32662028,5.35823072 C4.32662028,4.05078017 3.35528827,2.98794399 2.16137177,2.98794399 C0.970019881,2.98794399 0,4.05078017 0,5.35823072 C0,6.66958213 0.970019881,7.73109802 2.16137177,7.73109802 C2.18582505,7.73109802 2.20252485,7.72461658 2.22572565,7.72203601 L5.14616302,21.3729095 L24.8339165,21.3729095 L27.7556064,7.72203601 C27.7761829,7.7233563 27.7967594,7.73109802 27.8212127,7.73109802 C29.0112525,7.73109802 29.9812724,6.66958213 29.9812724,5.35823072 C29.9799602,4.05078017 29.0099404,2.98794399 27.8199006,2.98794399 L27.8199006,2.98794399 Z" id="Shape"></path>
                                <rect id="Rectangle-path" x="5.24516899" y="21.8531963" width="19.4883101" height="2.66285174"></rect>
                            </g>
                        </g>
                    </g>
                </g>
            </g>
        </g>
    </g>
</svg>