<?xml version="1.0" encoding="UTF-8" standalone="no"?>
<svg width="92px" height="75px" viewBox="0 0 92 75" version="1.1" xmlns="http://www.w3.org/2000/svg" xmlns:xlink="http://www.w3.org/1999/xlink">
    <!-- Generator: Sketch 3.8.3 (29802) - http://www.bohemiancoding.com/sketch -->
    <title>networking</title>
    <desc>Created with Sketch.</desc>
    <defs></defs>
    <g id="Page-1" stroke="none" stroke-width="1" fill="none" fill-rule="evenodd">
        <g id="Artboard-5" transform="translate(-4.000000, -14.000000)">
            <g id="networking" transform="translate(4.000000, 14.000000)">
                <g id="Layer_1">
                    <g id="Group">
                        <path d="M63.8367347,31.2310606 L28.0881633,31.2310606 C26.8489796,31.2310606 25.835102,30.2083333 25.835102,28.9583333 L25.835102,3.99621212 C25.835102,2.74621212 26.8489796,1.72348485 28.0881633,1.72348485 L63.8367347,1.72348485 C65.0759184,1.72348485 66.0897959,2.74621212 66.0897959,3.99621212 L66.0897959,28.9583333 C66.0897959,30.2083333 65.0759184,31.2310606 63.8367347,31.2310606 L63.8367347,31.2310606 Z" id="XMLID_2049_" fill="#1771BD"></path>
                        <path d="M4.75020408,74.9431818 L21.8734694,74.9431818 C24.5020408,74.9431818 26.6236735,72.7840909 26.6236735,70.1515152 L26.6236735,60.7954545 C26.6236735,58.1439394 24.4832653,56.0037879 21.8734694,56.0037879 L15.0204082,56.0037879 L15.0204082,47.9166667 C15.0204082,46.4962121 16.1657143,45.3219697 17.5926531,45.3219697 L44.2726531,45.3219697 L44.2726531,56.0037879 L37.4195918,56.0037879 C34.7910204,56.0037879 32.6693878,58.1628788 32.6693878,60.7954545 L32.6693878,70.1515152 C32.6693878,72.8030303 34.8097959,74.9431818 37.4195918,74.9431818 L54.5428571,74.9431818 C57.1714286,74.9431818 59.2930612,72.7840909 59.2930612,70.1515152 L59.2930612,60.7954545 C59.2930612,58.1439394 57.1526531,56.0037879 54.5428571,56.0037879 L47.6897959,56.0037879 L47.6897959,45.3219697 L74.3697959,45.3219697 C75.7779592,45.3219697 76.9420408,46.4772727 76.9420408,47.9166667 L76.9420408,56.0037879 L70.0889796,56.0037879 C67.4604082,56.0037879 65.3387755,58.1628788 65.3387755,60.7954545 L65.3387755,70.1515152 C65.3387755,72.8030303 67.4791837,74.9431818 70.0889796,74.9431818 L87.2122449,74.9431818 C89.8408163,74.9431818 91.962449,72.7840909 91.962449,70.1515152 L91.962449,60.7954545 C91.962449,58.1439394 89.8220408,56.0037879 87.2122449,56.0037879 L80.3591837,56.0037879 L80.3591837,47.9166667 C80.3591837,44.6022727 77.6742857,41.8939394 74.3885714,41.8939394 L47.6710204,41.8939394 L47.6710204,32.9356061 L61.564898,32.9356061 C65.0008163,32.9356061 67.7983673,30.1136364 67.7983673,26.6477273 L67.7983673,6.30681818 C67.7983673,2.84090909 65.0008163,0.0189393939 61.564898,0.0189393939 L30.3787755,0.0189393939 C26.9428571,0.0189393939 24.1453061,2.84090909 24.1453061,6.30681818 L24.1453061,26.6477273 C24.1453061,30.1136364 26.9428571,32.9356061 30.3787755,32.9356061 L44.2726531,32.9356061 L44.2726531,41.875 L17.5926531,41.875 C14.3069388,41.875 11.6220408,44.5833333 11.6220408,47.8977273 L11.6220408,55.9848485 L4.75020408,55.9848485 C2.12163265,55.9848485 0,58.1439394 0,60.7765152 L0,70.1325758 C0,72.8030303 2.14040816,74.9431818 4.75020408,74.9431818 L4.75020408,74.9431818 Z M55.8759184,60.7954545 L55.8759184,70.1515152 C55.8759184,70.9090909 55.275102,71.5151515 54.5240816,71.5151515 L37.4008163,71.5151515 C36.6497959,71.5151515 36.0489796,70.9090909 36.0489796,70.1515152 L36.0489796,60.7954545 C36.0489796,60.0378788 36.6497959,59.4318182 37.4008163,59.4318182 L54.5240816,59.4318182 C55.275102,59.4318182 55.8759184,60.0568182 55.8759184,60.7954545 L55.8759184,60.7954545 Z M88.5265306,60.7954545 L88.5265306,70.1515152 C88.5265306,70.9090909 87.9257143,71.5151515 87.1746939,71.5151515 L70.0514286,71.5151515 C69.3004082,71.5151515 68.6995918,70.9090909 68.6995918,70.1515152 L68.6995918,60.7954545 C68.6995918,60.0378788 69.3004082,59.4318182 70.0514286,59.4318182 L87.1746939,59.4318182 C87.9069388,59.4318182 88.5265306,60.0568182 88.5265306,60.7954545 L88.5265306,60.7954545 Z M27.5436735,26.6477273 L27.5436735,6.30681818 C27.5436735,4.73484848 28.8204082,3.4469697 30.3787755,3.4469697 L61.5461224,3.4469697 C63.1044898,3.4469697 64.3812245,4.73484848 64.3812245,6.30681818 L64.3812245,26.6477273 C64.3812245,28.219697 63.1044898,29.5075758 61.5461224,29.5075758 L30.3787755,29.5075758 C28.8016327,29.5075758 27.5436735,28.219697 27.5436735,26.6477273 L27.5436735,26.6477273 Z M3.39836735,60.7954545 C3.39836735,60.0378788 3.99918367,59.4318182 4.75020408,59.4318182 L21.8734694,59.4318182 C22.6244898,59.4318182 23.2253061,60.0378788 23.2253061,60.7954545 L23.2253061,70.1515152 C23.2253061,70.9090909 22.6244898,71.5151515 21.8734694,71.5151515 L4.75020408,71.5151515 C3.99918367,71.5151515 3.39836735,70.9090909 3.39836735,70.1515152 L3.39836735,60.7954545 L3.39836735,60.7954545 Z" id="Shape" fill="#000000"></path>
                        <path d="M37.0065306,14.2234848 L54.9183673,14.2234848 C55.8571429,14.2234848 56.6269388,13.4469697 56.6269388,12.5 C56.6269388,11.5530303 55.8571429,10.7765152 54.9183673,10.7765152 L37.0065306,10.7765152 C36.0677551,10.7765152 35.2979592,11.5530303 35.2979592,12.5 C35.2979592,13.4469697 36.0677551,14.2234848 37.0065306,14.2234848 L37.0065306,14.2234848 Z" id="Shape" fill="#000000"></path>
                        <path d="M56.6269388,20.4356061 C56.6269388,19.4886364 55.8571429,18.7121212 54.9183673,18.7121212 L37.0065306,18.7121212 C36.0677551,18.7121212 35.2979592,19.4886364 35.2979592,20.4356061 C35.2979592,21.3825758 36.0677551,22.1590909 37.0065306,22.1590909 L54.9183673,22.1590909 C55.8571429,22.1590909 56.6269388,21.3825758 56.6269388,20.4356061 L56.6269388,20.4356061 Z" id="Shape" fill="#000000"></path>
                    </g>
                </g>
            </g>
        </g>
    </g>
</svg>