<?xml version="1.0" encoding="UTF-8" standalone="no"?>
<svg width="99px" height="69px" viewBox="0 0 99 69" version="1.1" xmlns="http://www.w3.org/2000/svg" xmlns:xlink="http://www.w3.org/1999/xlink">
    <!-- Generator: Sketch 3.8.3 (29802) - http://www.bohemiancoding.com/sketch -->
    <title>mountains</title>
    <desc>Created with Sketch.</desc>
    <defs></defs>
    <g id="Page-1" stroke="none" stroke-width="1" fill="none" fill-rule="evenodd">
        <g id="Artboard-5" transform="translate(0.000000, -16.000000)" fill="#1771BD">
            <g id="mountains" transform="translate(0.000000, 16.000000)">
                <g id="Capa_1">
                    <g id="Group">
                        <path d="M25.0030957,10.2403241 C25.0386065,10.8014815 25.5088565,11.2386944 26.0770304,11.2386944 L38.514013,11.2386944 C39.012887,11.2386944 39.4463348,10.8994444 39.5612609,10.419 C39.6314217,10.125963 39.6669326,9.83186111 39.6669326,9.545 C39.6669326,7.45519444 37.948637,5.75489815 35.8367087,5.75489815 C35.369687,5.75489815 34.9149326,5.83752778 34.4875109,5.99788889 C33.666887,5.14135185 32.5150435,4.63684259 31.2956217,4.63684259 C29.7083935,4.63684259 28.241687,5.50360185 27.4699174,6.84675926 C26.0382913,7.22349074 24.9938413,8.51532407 24.9938413,10.033963 C24.9938413,10.0950833 24.9972848,10.1549259 25.0013739,10.2147685 L25.0030957,10.2403241 L25.0030957,10.2403241 Z M28.2606261,8.86735185 C28.682237,8.8435 29.0506891,8.57750926 29.2026326,8.18757407 C29.5342826,7.33742593 30.3753522,6.76625926 31.2956217,6.76625926 C32.1013957,6.76625926 32.8494913,7.19814815 33.2478587,7.89347222 C33.4004478,8.15988889 33.661937,8.34836111 33.964963,8.41075926 C34.2677739,8.47273148 34.5834978,8.40330556 34.8309978,8.21909259 C35.1252,7.9999537 35.4729913,7.88431481 35.8367087,7.88431481 C36.6095543,7.88431481 37.2620935,8.40394444 37.4560043,9.10885185 L27.6063652,9.10885185 C27.7890848,8.96936111 28.0142022,8.88140741 28.2606261,8.86735185 L28.2606261,8.86735185 Z" id="Shape"></path>
                        <path d="M64.3936891,6.76540741 C64.4289848,7.32677778 64.89945,7.76399074 65.4676239,7.76399074 L80.6796196,7.76399074 C81.1784935,7.76399074 81.6121565,7.42452778 81.7268674,6.94408333 C81.8082196,6.60355556 81.8493261,6.26238889 81.8493261,5.9299537 C81.8493261,3.50473148 79.855337,1.53184259 77.4046565,1.53184259 C76.8082891,1.53184259 76.2287087,1.64812037 75.6898043,1.87300926 C74.7256304,0.800314815 73.3305913,0.164407407 71.8505413,0.164407407 C69.961363,0.164407407 68.217887,1.21537963 67.3305457,2.83517593 C65.6324804,3.23490741 64.382713,4.74587963 64.382713,6.52837963 C64.382713,6.5969537 64.3868022,6.66446296 64.3913217,6.73197222 L64.3936891,6.76540741 L64.3936891,6.76540741 Z M68.1244826,4.86428704 C68.5460935,4.84022222 68.9145457,4.57444444 69.0667043,4.18450926 C69.5076848,3.05367593 70.6263848,2.29403704 71.8507565,2.29403704 C72.9223239,2.29403704 73.9174891,2.86861111 74.4473543,3.79350926 C74.6001587,4.05992593 74.8616478,4.24839815 75.1646739,4.3107963 C75.4670543,4.37319444 75.7832087,4.30312963 76.0304935,4.11891667 C76.4320891,3.8197037 76.9072891,3.66168519 77.4046565,3.66168519 C78.5674761,3.66168519 79.5310043,4.52290741 79.6779978,5.63457407 L66.798313,5.63457407 C67.0806783,5.19672222 67.564487,4.89623148 68.1244826,4.86428704 L68.1244826,4.86428704 Z" id="Shape"></path>
                        <path d="M97.9402696,43.6933981 C94.7077043,43.2263704 91.3802283,42.8596481 88.0034674,42.5906759 L95.4889435,29.8516574 L95.4889435,32.9607037 C95.4889435,33.6076852 96.0190239,34.132 96.6726391,34.132 C97.3262543,34.132 97.8563348,33.6076852 97.8563348,32.9607037 L97.8563348,25.507 C97.8563348,25.1055648 97.6484348,24.7320278 97.3055935,24.5173611 C96.9623217,24.3024815 96.5323174,24.276713 96.1658022,24.4485741 L91.0401848,26.8512222 L92.3958391,24.1044259 C94.2318587,22.7895926 95.9514457,21.4091667 97.4870217,19.9682593 C97.9613609,19.5231667 97.9813761,18.7818426 97.5315717,18.3124722 C97.081337,17.8431019 96.3325957,17.8232963 95.8582565,18.2686019 C92.6409717,21.2875648 88.5174065,24.0586389 84.1896,26.5023889 C80.0118,24.7952778 77.7354457,22.84475 75.7188587,21.1157037 C75.042,20.5353796 74.4030196,19.9874259 73.7205652,19.4680093 C73.3230587,19.1656019 72.7766217,19.1434537 72.3556565,19.4130648 C69.4887457,21.2488056 63.6522652,22.5393611 61.80075,22.9158796 C56.8010348,18.2641296 52.9981435,14.133287 50.295013,11.1963148 C49.4903152,10.3208241 48.1641457,9.8422963 46.6528891,9.88616667 C45.1175283,9.92982407 43.7685457,10.4839537 43.0439087,11.3688148 C39.4596783,15.74925 33.1766217,21.2104722 27.2512565,25.9621019 C25.5493174,25.6309444 19.8652109,24.3295278 14.6857891,20.91275 C14.1608739,20.5662593 13.4528087,20.6885 13.0772543,21.1910926 C9.55909565,25.9003426 1.12128261,32.395713 1.03648696,32.4608796 C0.51975,32.8572037 0.425484783,33.5929907 0.826004348,34.1041019 C1.0593,34.402037 1.40902826,34.5579259 1.76241522,34.5579259 C2.01572609,34.5579259 2.27097391,34.4778519 2.48662174,34.3123796 C2.69172391,34.155213 5.5625087,31.9448704 8.67153913,29.1503704 L9.04192826,30.164287 C9.16955217,30.5135463 9.45686739,30.7820926 9.81649565,30.8883611 C9.92776304,30.9211574 10.041613,30.9373426 10.1550326,30.9373426 C10.4081283,30.9373426 10.6579957,30.8570556 10.86525,30.7030833 L13.8126522,28.5157407 L16.4525087,29.3865463 C17.0028196,29.5682037 17.6045674,29.3284074 17.8742348,28.8207037 L19.3697804,26.0078889 C21.5124848,26.8914722 23.4505174,27.4715833 24.8877391,27.8351111 C19.0200522,32.4370278 13.9497457,36.0546296 12.8796848,36.8129907 C8.77484348,37.5717778 4.74274565,38.5484259 0.832245652,39.7529444 C0.208115217,39.94525 -0.140536957,40.6016019 0.0538043478,41.2194074 C0.247930435,41.837 0.911015217,42.182 1.5357913,41.9896944 C12.6268043,38.5739815 24.9927652,36.9441759 37.2978196,37.277463 C47.6910978,37.558787 57.9188739,39.2486481 67.2309,42.1924352 C64.3637739,42.3095648 61.5233348,42.4944167 58.7392826,42.756787 C43.659,44.1783148 30.4199022,47.7290463 20.4215478,53.0277778 C13.9628739,52.9924259 7.49666739,53.3180463 1.05693261,54.0057037 C0.406976087,54.0751296 -0.0630586957,54.6526852 0.00710217391,55.2958333 C0.0772630435,55.9391944 0.662223913,56.4038796 1.31088913,56.3346667 C15.8505457,54.7823796 30.5272957,55.0999074 44.9343783,57.2780926 C59.1161283,59.4222037 72.3354261,63.2587315 84.2257565,68.6811944 C84.3860935,68.7544537 84.5546087,68.7889537 84.7203261,68.7889537 C85.1681935,68.7889537 85.5964761,68.5361667 85.7961978,68.1076852 C86.0697391,67.5201204 85.810187,66.8243704 85.2166174,66.5536944 C73.1250587,61.0394444 59.6924804,57.1396667 45.2920696,54.9623333 C38.7561326,53.9741852 32.1655304,53.3666019 25.5572804,53.1344722 C47.3329761,43.4029167 77.4651326,43.101787 97.5980739,46.011287 C98.245663,46.1045648 98.8461196,45.6616019 98.9403848,45.0216481 C99.0348652,44.3816944 98.587213,43.7868889 97.9402696,43.6933981 L97.9402696,43.6933981 Z M16.2474065,26.8497315 L13.9729891,26.099463 C13.6043217,25.9778611 13.1990674,26.0430278 12.8885087,26.2736667 L10.724713,27.8796204 L10.5527543,27.4089722 C11.9180935,26.1037222 13.2360848,24.7431019 14.2994739,23.4499907 C15.2733326,24.0454352 16.2512804,24.5725185 17.2100739,25.0395463 L16.2474065,26.8497315 L16.2474065,26.8497315 Z M87.4908196,28.704 L82.3886609,34.8748148 L80.8827848,34.0619352 C80.5317652,33.8726111 80.1075717,33.8713333 79.7554761,34.0585278 L68.416963,40.0902778 C66.6526109,39.5191111 64.861787,38.9950093 63.0483652,38.5179722 C68.6745783,36.5274074 79.3474239,32.3816574 88.4728565,26.714287 L87.4908196,28.704 L87.4908196,28.704 Z M56.3249739,36.9825093 L54.5629891,29.911713 C54.4863717,29.6039815 54.2868652,29.3401204 54.0103109,29.1803981 L51.7877609,27.8975093 L49.8957848,23.005537 L56.24685,28.267 L61.570037,34.166713 C61.8691891,34.4980833 62.3319065,34.6331019 62.7644935,34.5166111 L64.2408848,34.1181574 L64.9235543,35.3194815 C61.847237,36.4771481 59.5936957,37.2233704 58.7754391,37.4878704 C57.9623478,37.3098333 57.1451674,37.1422315 56.3249739,36.9825093 L56.3249739,36.9825093 Z M72.8997261,21.8159259 C73.3166022,22.1551759 73.7345543,22.5135926 74.1686478,22.8856389 C74.7710413,23.4020741 75.3956022,23.93725 76.0808543,24.4803056 L73.5019043,26.2329907 L72.0252978,24.1872685 C71.7545543,23.8120278 71.2871022,23.6288796 70.8297652,23.7196019 L69.0268891,24.0763148 L69.0309783,23.4359352 C70.410737,22.9718889 71.7717717,22.4292593 72.8997261,21.8159259 L72.8997261,21.8159259 Z M66.6584217,24.1608611 L66.6495978,25.4995463 C66.6472304,25.851787 66.8054152,26.1863519 67.0798174,26.4106019 C67.3542196,26.6348519 67.7166457,26.7247222 68.065513,26.6557222 L70.5433109,26.1654815 L72.2506304,28.5306481 C72.4813435,28.8503056 72.8452761,29.0213148 73.2148043,29.0213148 C73.4457326,29.0213148 73.6792435,28.9544444 73.8839152,28.8153796 L78.0974413,25.9518796 C79.0964804,26.6156852 80.2371326,27.277787 81.588913,27.9200833 C78.5840478,29.5047407 75.5490522,30.929037 72.7096891,32.1655 C69.4782,29.6778796 66.5518891,27.2141111 63.9227935,24.8553333 C64.7141478,24.6728241 65.6568,24.4400556 66.6584217,24.1608611 L66.6584217,24.1608611 Z M70.2318913,33.2188148 C69.1596783,33.6643333 68.1279261,34.080037 67.1527761,34.4627315 L65.8522174,32.1735926 C65.5864239,31.705713 65.0343913,31.4759259 64.5090457,31.6175463 L62.848213,32.0656204 L58.2104935,26.9257593 L57.7245326,22.292537 C61.2056739,25.6665093 65.3610913,29.4023056 70.2318913,33.2188148 L70.2318913,33.2188148 Z M44.883587,12.8425185 C45.1181739,12.5558704 45.8245174,12.2523981 46.7206826,12.2270556 C47.5126826,12.2025648 48.2140761,12.4133981 48.5444348,12.7724537 C50.2683261,14.645463 52.4347043,16.9991296 55.06875,19.6626574 L55.5938804,24.6711204 L48.5782239,18.8589352 C48.1079739,18.4694259 47.4149739,18.4996667 46.9813109,18.928787 L44.3151978,21.5669722 L43.9458848,20.763037 C43.8023348,20.4501944 43.5270717,20.2157222 43.1932696,20.1213796 C42.8592522,20.027037 42.5002696,20.0824074 42.211663,20.2730093 L37.6335587,23.293037 L38.5998848,19.3647222 C41.0406652,17.0951759 43.2249065,14.8695 44.883587,12.8425185 L44.883587,12.8425185 Z M32.340287,34.8956852 C30.5507543,34.9233704 28.7622978,34.9908796 26.9775,35.0988519 L36.4870957,26.8650648 L42.3666196,22.9865833 L42.6330587,23.5664815 L40.6300304,27.5303611 L38.7789457,27.5303611 C38.4163043,27.5303611 38.0736783,27.6947685 37.8492065,27.9767315 L32.340287,34.8956852 L32.340287,34.8956852 Z M35.4699783,22.1828611 L34.70445,25.2957407 L23.030413,35.4036019 C21.3646304,35.5603426 19.7055196,35.7530741 18.0543717,35.9803056 C22.336337,32.8405926 29.3136848,27.565713 35.4699783,22.1828611 L35.4699783,22.1828611 Z M35.3634457,34.8839722 L39.3533609,29.8727407 L41.3617696,29.8727407 C41.8100674,29.8727407 42.2200565,29.6220833 42.4204239,29.2251204 L44.9171609,24.2841667 L47.0422174,22.1813704 L49.725763,29.1199167 C49.8221804,29.3692963 50.0016717,29.5784259 50.2347522,29.7130185 L52.3845587,30.9539537 L53.7709891,36.5176111 C47.7436109,35.4904907 41.5612761,34.9448796 35.3634457,34.8839722 L35.3634457,34.8839722 Z M73.8882196,42.0486852 C73.084813,41.7326481 72.2736587,41.4283241 71.4569087,41.1331574 L80.3122435,36.4224167 L82.1168413,37.3965093 C82.6165761,37.6661204 83.2394152,37.5457963 83.5999043,37.1098611 L89.2420435,30.2861019 L93.7319087,28.1813889 L85.3754478,42.4026296 C81.5734174,42.1594259 77.7246848,42.0408056 73.8882196,42.0486852 L73.8882196,42.0486852 Z" id="Shape"></path>
                    </g>
                </g>
            </g>
        </g>
    </g>
</svg>