<?xml version="1.0" encoding="UTF-8" standalone="no"?>
<svg width="88px" height="98px" viewBox="0 0 88 98" version="1.1" xmlns="http://www.w3.org/2000/svg" xmlns:xlink="http://www.w3.org/1999/xlink">
    <!-- Generator: Sketch 3.8.3 (29802) - http://www.bohemiancoding.com/sketch -->
    <title>road-perspective-of-curves</title>
    <desc>Created with Sketch.</desc>
    <defs></defs>
    <g id="Page-1" stroke="none" stroke-width="1" fill="none" fill-rule="evenodd">
        <g id="Artboard-5" transform="translate(-6.000000, -2.000000)" fill="#1771BD">
            <g id="road-perspective-of-curves" transform="translate(6.000000, 2.000000)">
                <g id="Capa_1">
                    <g id="Shape_19_1_">
                        <path d="M36.8740098,39.982417 C35.0779772,35.7541703 33.5264209,32.1029868 34.545814,26.0101498 C36.3955367,14.9696799 55.5469494,2.47460793 76.5064535,3.54325404 L76.6831713,0.0676358297 C53.6001827,-1.08634655 33.2230865,12.7486344 31.0994584,25.4384112 C29.9119608,32.5270778 31.8153736,37.0055771 33.6564829,41.3380117 C35.0433801,44.6033833 36.4787993,47.9782673 36.7110734,52.734793 C37.0785775,60.2092717 14.4218075,72.1777915 0.0554127243,77.9648282 L1.36608157,81.188467 C5.40360196,79.5636241 40.807739,64.9413333 40.2026493,52.5644082 C39.9390799,47.1909574 38.3112953,43.3607548 36.8740098,39.982417 L36.8740098,39.982417 Z M87.8130897,64.327862 C87.0901403,54.6775242 82.0106884,45.3819148 74.9548972,40.6463994 C62.6132202,32.3637445 61.6389038,27.951442 64.2463165,23.5164023 C70.2481175,13.3100117 85.7708581,13.1606373 85.7708581,13.1606373 L85.7708581,9.68314831 C85.7708581,9.68314831 68.2526852,9.82043465 61.2330701,21.7611806 C56.0651876,30.5495213 64.0052855,37.419163 73.115367,43.5330103 C79.3164241,47.6950602 83.7406852,55.9585756 84.3874062,64.5870367 C84.959478,72.2300294 82.9692137,83.7815095 70.2357716,95.4024963 L72.5969853,97.9674772 C86.3603002,85.4027548 88.4440196,72.739025 87.8130897,64.327862 L87.8130897,64.327862 Z M38.2436803,88.542928 L39.0585057,91.9248634 C39.1347341,91.9057239 40.9464144,91.467674 43.4740098,90.306928 L42.0108842,87.1474714 C39.8212202,88.1536623 38.2591843,88.5377474 38.2436803,88.542928 L38.2436803,88.542928 Z M49.8467602,41.8071454 C51.2527504,44.2888047 52.7315237,46.9581175 53.9589299,49.888188 L57.183491,48.5500059 C55.8815791,45.4410602 54.3491158,42.6708693 52.889292,40.098837 L49.8467602,41.8071454 L49.8467602,41.8071454 Z M48.706062,24.3956681 L45.5162414,22.9793451 C44.793292,24.5920999 44.4414356,26.2065815 44.4414356,27.9166167 C44.4414356,29.6042026 44.7915693,31.3644611 45.5109299,33.3057533 L48.7893246,32.0996769 C48.2155302,30.552975 47.9364568,29.1852922 47.9364568,27.9166167 C47.9363132,26.703489 48.1876803,25.5531043 48.706062,24.3956681 L48.706062,24.3956681 Z M49.2710995,82.3440323 L51.6532724,84.8882907 C54.1306232,82.5908311 56.1137096,79.9302966 57.5509951,76.9741791 L54.4062512,75.4588488 C53.1578858,78.0238297 51.4313344,80.3402849 49.2710995,82.3440323 L49.2710995,82.3440323 Z M59.8948385,57.8162584 L56.444894,58.3740382 C56.6148646,59.4202349 56.7378923,60.4838443 56.8106754,61.5386755 C56.864509,62.3503054 56.8922153,63.1409251 56.8922153,63.9090954 C56.8922153,65.0108399 56.8366591,66.1022232 56.7258336,67.1518737 L60.2017618,67.5150925 C60.3247896,66.3436975 60.3872365,65.1324405 60.3872365,63.9089515 C60.3872365,63.066094 60.3578075,62.1989163 60.2970832,61.3038209 C60.2172659,60.141348 60.0820359,58.9666432 59.8948385,57.8162584 L59.8948385,57.8162584 Z M55.6439935,12.597533 C54.3090636,13.4942115 53.0852463,14.3944875 52.0034062,15.2720264 L54.2069951,17.969257 C55.2088744,17.1593539 56.3514388,16.320094 57.5996607,15.4788194 L55.6439935,12.597533 L55.6439935,12.597533 Z" id="Shape"></path>
                    </g>
                </g>
            </g>
        </g>
    </g>
</svg>