<?xml version="1.0" encoding="UTF-8" standalone="no"?>
<svg width="47px" height="87px" viewBox="0 0 47 87" version="1.1" xmlns="http://www.w3.org/2000/svg" xmlns:xlink="http://www.w3.org/1999/xlink">
    <!-- Generator: Sketch 3.8.3 (29802) - http://www.bohemiancoding.com/sketch -->
    <title>rocket</title>
    <desc>Created with Sketch.</desc>
    <defs></defs>
    <g id="Page-1" stroke="none" stroke-width="1" fill="none" fill-rule="evenodd">
        <g id="Artboard-5" transform="translate(-27.000000, -7.000000)" fill="#1771BD">
            <g id="rocket" transform="translate(27.000000, 7.000000)">
                <g id="Group">
                    <path d="M23.5,19.1637427 C18.1924686,19.1637427 13.8745387,23.3860409 13.8745387,28.5760234 C13.8745387,33.7660058 18.1924686,37.9883041 23.5,37.9883041 C28.8075314,37.9883041 33.1254613,33.7660058 33.1254613,28.5760234 C33.1254613,23.3860409 28.8075314,19.1637427 23.5,19.1637427 L23.5,19.1637427 Z M23.5,35.4444444 C19.6269225,35.4444444 16.4760148,32.3633216 16.4760148,28.5760234 C16.4760148,24.7887251 19.6269225,21.7076023 23.5,21.7076023 C27.3730775,21.7076023 30.5239852,24.7887251 30.5239852,28.5760234 C30.5239852,32.3633216 27.3730775,35.4444444 23.5,35.4444444 L23.5,35.4444444 Z" id="Shape"></path>
                    <path d="M23.5,24.5906433 C22.7816458,24.5906433 22.199262,25.1601287 22.199262,25.8625731 C22.199262,26.5650175 22.7816458,27.1345029 23.5,27.1345029 C24.3128745,27.1345029 24.9741697,27.781152 24.9741697,28.5760234 C24.9741697,29.2784678 25.5565535,29.8479532 26.2749077,29.8479532 C26.993262,29.8479532 27.5756458,29.2784678 27.5756458,28.5760234 C27.5756458,26.3784678 25.7473284,24.5906433 23.5,24.5906433 L23.5,24.5906433 Z" id="Shape"></path>
                    <path d="M45.0596458,64.5690936 L36.8067232,51.9534152 C37.9511993,41.0985965 38.6752768,31.7933275 38.6752768,27.2192982 C38.6752768,17.7396901 34.7477417,10.9491111 31.4528856,6.92167251 C27.8793247,2.55369591 24.3189446,0.438561404 24.1690996,0.35071345 C23.7571993,0.109046784 23.2424539,0.109046784 22.8305535,0.35071345 C22.6807085,0.438561404 19.1203284,2.55369591 15.5467675,6.92167251 C12.2522583,10.9491111 8.32472325,17.7396901 8.32472325,27.2192982 C8.32472325,31.7934971 9.04897417,41.0987661 10.1932768,51.9535848 L1.93879336,64.5716374 C0.670487085,66.5204035 0,68.7715497 0,71.0817135 L0,85.5584795 C0,86.0960819 0.345649446,86.5756842 0.863516605,86.7562982 C1.00659779,86.8063275 1.15436162,86.8304094 1.30056458,86.8304094 C1.68332841,86.8304094 2.05568635,86.6648889 2.30750923,86.3638655 L12.9088708,73.6937485 C13.6445683,75.8260117 15.7090996,77.3333333 18.0792177,77.3333333 L22.199262,77.3333333 L22.199262,85.5584795 C22.199262,86.260924 22.7816458,86.8304094 23.5,86.8304094 C24.2183542,86.8304094 24.800738,86.260924 24.800738,85.5584795 L24.800738,77.3333333 L28.9207823,77.3333333 C31.2910738,77.3333333 33.3554317,75.8260117 34.0913026,73.6937485 L44.6924908,86.3638655 C44.9444871,86.6648889 45.3166716,86.8304094 45.6994354,86.8304094 C45.8456384,86.8304094 45.9934022,86.8061579 46.1364834,86.7562982 C46.6541771,86.5756842 47,86.0959123 47,85.5584795 L47,71.0817135 C47,68.7717193 46.3296863,66.5205731 45.0596458,64.5690936 L45.0596458,64.5690936 Z M2.60147601,71.0817135 C2.60147601,69.2562398 3.13130996,67.4774035 4.13183764,65.9400643 L10.6318856,56.0037485 C11.1487122,60.6561287 11.7317897,65.5086257 12.3590923,70.3334795 L2.60147601,81.9952105 L2.60147601,71.0817135 L2.60147601,71.0817135 Z M28.9209557,74.7894737 L24.800738,74.7894737 L24.800738,52.997076 C24.800738,52.2946316 24.2183542,51.7251462 23.5,51.7251462 C22.7816458,51.7251462 22.199262,52.2946316 22.199262,52.997076 L22.199262,74.7894737 L18.0792177,74.7894737 C16.6503137,74.7894737 15.4328229,73.7408947 15.2474244,72.3505906 C14.3398561,65.5430526 13.5146679,58.6108655 12.8341218,52.2062749 C12.8318672,52.1584503 12.8266642,52.1111345 12.8190332,52.0641579 C11.6610295,41.1450643 10.9261993,31.7792515 10.9261993,27.2192982 C10.9261993,22.2921813 12.0314797,17.7215439 14.2170664,13.5672515 L24.8874539,13.5672515 C25.6058081,13.5672515 26.1881919,12.9977661 26.1881919,12.2953216 C26.1881919,11.5928772 25.6058081,11.0233918 24.8874539,11.0233918 L15.7250554,11.0233918 C16.2748339,10.1937544 16.8702251,9.38226316 17.5134834,8.59044444 C19.9207159,5.62803509 22.3570849,3.76406433 23.4996531,2.97207602 C24.9186716,3.95790643 28.3368376,6.60928655 31.2515314,11.0233918 L30.4372694,11.0233918 C29.7189151,11.0233918 29.1365314,11.5928772 29.1365314,12.2953216 C29.1365314,12.9977661 29.7189151,13.5672515 30.4372694,13.5672515 L32.7558782,13.5672515 C34.6596384,17.189538 36.0738007,21.7274444 36.0738007,27.2192982 C36.0738007,31.7790819 35.3389705,41.1454035 34.1809668,52.0646667 C34.1735092,52.1109649 34.1683063,52.1576023 34.1660517,52.2047485 C33.4855055,58.6096784 32.6603173,65.5423743 31.7525756,72.3505906 C31.5671771,73.7410643 30.3498598,74.7894737 28.9209557,74.7894737 L28.9209557,74.7894737 Z M44.398524,81.9952105 L34.6409077,70.3333099 C35.2683838,65.5084561 35.8512878,60.6559591 36.3681144,56.0035789 L42.866428,65.9373509 C43.86869,67.4774035 44.3983506,69.2562398 44.3983506,71.0815439 L44.3983506,81.9952105 L44.398524,81.9952105 Z" id="Shape"></path>
                </g>
            </g>
        </g>
    </g>
</svg>