<?xml version="1.0" encoding="UTF-8" standalone="no"?>
<svg width="90px" height="78px" viewBox="0 0 90 78" version="1.1" xmlns="http://www.w3.org/2000/svg" xmlns:xlink="http://www.w3.org/1999/xlink">
    <!-- Generator: Sketch 3.8.3 (29802) - http://www.bohemiancoding.com/sketch -->
    <title>sharing</title>
    <desc>Created with Sketch.</desc>
    <defs></defs>
    <g id="Page-1" stroke="none" stroke-width="1" fill="none" fill-rule="evenodd">
        <g id="Artboard-5" transform="translate(-6.000000, -11.000000)">
            <g id="sharing" transform="translate(6.000000, 11.000000)">
                <g id="Layer_1">
                    <g id="Group">
                        <path d="M88.2,57.8940283 L88.2,53.3317642 C88.2,52.3751604 87.777551,51.4553491 87.0244898,50.8482736 C82.9102041,47.4633679 78.4836735,45.2190283 77.5653061,44.7775189 C77.455102,44.7223302 77.4,44.6303491 77.4,44.5015755 L77.4,38.0812925 C78.2081633,37.5478019 78.7408163,36.6279906 78.7408163,35.5794057 L78.7408163,28.9199717 C78.7408163,25.6086509 76.0591837,22.9228019 72.7530612,22.9228019 L72.0367347,22.9228019 L71.3204082,22.9228019 C68.0142857,22.9228019 65.3326531,25.6086509 65.3326531,28.9199717 L65.3326531,35.5794057 C65.3326531,36.6279906 65.8653061,37.5294057 66.6734694,38.0812925 L66.6734694,44.5015755 C66.6734694,44.6119528 66.6183673,44.7223302 66.5081633,44.7775189 C65.6081633,45.2190283 61.1632653,47.4633679 57.0489796,50.8482736 C56.3142857,51.4553491 55.8734694,52.3751604 55.8734694,53.3317642 L55.8734694,57.8940283" id="XMLID_1866_" fill="#1771BD"></path>
                        <path d="M18.955102,14.0926132 C25.5857143,7.30440566 34.4571429,3.49638679 43.9346939,3.38600943 C53.3204082,3.27563208 62.2102041,6.80770755 68.9510204,13.3199717 L65.2040816,13.3567642 C64.2857143,13.3751604 63.5510204,14.1294057 63.5510204,15.049217 C63.5693878,15.9690283 64.3040816,16.7048774 65.222449,16.7048774 L65.2408163,16.7048774 L73.0102041,16.6128962 C73.9285714,16.5945 74.6632653,15.8402547 74.6632653,14.9204434 L74.5714286,7.13883962 C74.5530612,6.2190283 73.8,5.50157547 72.8816327,5.48317925 C71.9632653,5.50157547 71.2285714,6.25582075 71.2285714,7.17563208 L71.2653061,10.9468585 C63.9,3.80912264 54.1836735,-0.0540849057 43.8979592,0.0562924528 C33.5204082,0.166669811 23.822449,4.32421698 16.5857143,11.7562925 C15.9428571,12.4185566 15.9612245,13.4671415 16.6040816,14.1110094 C17.2469388,14.7732736 18.3122449,14.7548774 18.955102,14.0926132 L18.955102,14.0926132 Z" id="Shape" fill="#000000"></path>
                        <path d="M17.4306122,70.6978019 L17.3938776,66.9265755 C24.6857143,73.9723302 34.2183673,77.8171415 44.3387755,77.8171415 L44.7979592,77.8171415 C55.1755102,77.7067642 64.8734694,73.549217 72.1102041,66.1171415 C72.7530612,65.4548774 72.7346939,64.4062925 72.0918367,63.7624245 C71.4306122,63.1185566 70.3836735,63.1369528 69.7408163,63.7808208 C63.1102041,70.5690283 54.2387755,74.3770472 44.7612245,74.4874245 C35.3571429,74.5978019 26.4857143,71.0657264 19.744898,64.5534623 L23.4918367,64.5166698 C24.4102041,64.4982736 25.144898,63.7440283 25.144898,62.824217 C25.1265306,61.9044057 24.3918367,61.1685566 23.4734694,61.1685566 L23.455102,61.1685566 L15.6857143,61.2605377 C15.244898,61.2605377 14.822449,61.4445 14.5102041,61.7572358 C14.1979592,62.0699717 14.0326531,62.4930849 14.0326531,62.9345943 L14.1244898,70.7161981 C14.1428571,71.6360094 14.877551,72.3718585 15.7959184,72.3718585 L15.8142857,72.3718585 C16.7142857,72.3718585 17.4489796,71.6176132 17.4306122,70.6978019 L17.4306122,70.6978019 Z" id="Shape" fill="#000000"></path>
                        <path d="M14.0693878,38.0812925 C14.0693878,37.5294057 13.7938776,36.9959151 13.3346939,36.7015755 C12.9673469,36.4440283 12.7469388,36.0393113 12.7469388,35.5978019 L12.7469388,28.9383679 C12.7469388,26.5468585 14.6755102,24.6152547 17.0632653,24.6152547 L18.4959184,24.6152547 C20.8836735,24.6152547 22.8122449,26.5468585 22.8122449,28.9383679 L22.8122449,35.5978019 C22.8122449,36.0393113 22.5918367,36.4624245 22.2244898,36.7015755 C21.7653061,37.0143113 21.4897959,37.5294057 21.4897959,38.0812925 L21.4897959,44.5015755 C21.4897959,45.2374245 21.9122449,45.9364811 22.5918367,46.2676132 C23.4183673,46.6723302 27.7346939,48.8614811 31.7204082,52.1360094 C32.0693878,52.4303491 32.2897959,52.8718585 32.2897959,53.3317642 L32.2897959,57.8940283 C32.2897959,58.8138396 33.0428571,59.5680849 33.9612245,59.5680849 C34.8795918,59.5680849 35.6326531,58.8138396 35.6326531,57.8940283 L35.6326531,53.3317642 C35.6326531,51.860066 34.9897959,50.4803491 33.8510204,49.5605377 C30.3244898,46.653934 26.5408163,44.5567642 24.8326531,43.6737453 L24.8326531,38.8723302 C25.677551,38.0077075 26.1734694,36.8487453 26.1734694,35.5978019 L26.1734694,28.9383679 C26.1734694,24.7072358 22.7387755,21.2855377 18.5326531,21.2855377 L17.1,21.2855377 C12.8755102,21.2855377 9.45918367,24.7256321 9.45918367,28.9383679 L9.45918367,35.5978019 C9.45918367,36.8303491 9.95510204,38.0077075 10.8,38.8723302 L10.8,43.6737453 C9.11020408,44.5567642 5.32653061,46.653934 1.78163265,49.5605377 C0.642857143,50.4987453 3.55271368e-15,51.860066 3.55271368e-15,53.3317642 L3.55271368e-15,57.8940283 C3.55271368e-15,58.8138396 0.753061224,59.5680849 1.67142857,59.5680849 C2.58979592,59.5680849 3.34285714,58.8138396 3.34285714,57.8940283 L3.34285714,53.3317642 C3.34285714,52.8534623 3.54489796,52.4303491 3.9122449,52.1360094 C7.89795918,48.8614811 12.2142857,46.6723302 13.0408163,46.2676132 C13.7020408,45.9364811 14.1428571,45.2558208 14.1428571,44.5015755 L14.1428571,38.0812925 L14.0693878,38.0812925 L14.0693878,38.0812925 L14.0693878,38.0812925 Z" id="Shape" fill="#000000"></path>
                        <path d="M88.2,59.5680849 C89.1183673,59.5680849 89.8714286,58.8138396 89.8714286,57.8940283 L89.8714286,53.3317642 C89.8714286,51.860066 89.2285714,50.4803491 88.0897959,49.5605377 C84.5632653,46.653934 80.7795918,44.5567642 79.0714286,43.6737453 L79.0714286,38.8723302 C79.9163265,38.0077075 80.4122449,36.8487453 80.4122449,35.5978019 L80.4122449,28.9383679 C80.4122449,24.7072358 76.977551,21.2855377 72.7714286,21.2855377 L71.3387755,21.2855377 C67.1142857,21.2855377 63.6979592,24.7256321 63.6979592,28.9383679 L63.6979592,35.5978019 C63.6979592,36.8303491 64.1938776,38.0077075 65.0387755,38.8723302 L65.0387755,43.6737453 C63.3489796,44.5567642 59.5653061,46.653934 56.0204082,49.5605377 C54.8816327,50.4987453 54.2387755,51.860066 54.2387755,53.3317642 L54.2387755,57.8940283 C54.2387755,58.8138396 54.9918367,59.5680849 55.9102041,59.5680849 C56.8285714,59.5680849 57.5816327,58.8138396 57.5816327,57.8940283 L57.5816327,53.3317642 C57.5816327,52.8534623 57.7836735,52.4303491 58.1510204,52.1360094 C62.1367347,48.8614811 66.4530612,46.6723302 67.2795918,46.2676132 C67.9408163,45.9364811 68.3816327,45.2558208 68.3816327,44.5015755 L68.3816327,38.0812925 C68.3816327,37.5294057 68.1061224,36.9959151 67.6469388,36.7015755 C67.2795918,36.4440283 67.0591837,36.0393113 67.0591837,35.5978019 L67.0591837,28.9383679 C67.0591837,26.5468585 68.9877551,24.6152547 71.3755102,24.6152547 L72.8081633,24.6152547 C75.1959184,24.6152547 77.1244898,26.5468585 77.1244898,28.9383679 L77.1244898,35.5978019 C77.1244898,36.0393113 76.9040816,36.4624245 76.5367347,36.7015755 C76.077551,37.0143113 75.8020408,37.5294057 75.8020408,38.0812925 L75.8020408,44.5015755 C75.8020408,45.2374245 76.2244898,45.9364811 76.9040816,46.2676132 C77.7306122,46.6723302 82.0469388,48.8614811 86.0326531,52.1360094 C86.3816327,52.4303491 86.6020408,52.8718585 86.6020408,53.3317642 L86.6020408,57.8940283 C86.5469388,58.8138396 87.2816327,59.5680849 88.2,59.5680849 L88.2,59.5680849 Z" id="Shape" fill="#000000"></path>
                    </g>
                </g>
            </g>
        </g>
    </g>
</svg>