<?xml version="1.0" encoding="UTF-8" standalone="no"?>
<svg width="96px" height="84px" viewBox="0 0 96 84" version="1.1" xmlns="http://www.w3.org/2000/svg" xmlns:xlink="http://www.w3.org/1999/xlink">
    <!-- Generator: Sketch 3.8.3 (29802) - http://www.bohemiancoding.com/sketch -->
    <title>tactics</title>
    <desc>Created with Sketch.</desc>
    <defs></defs>
    <g id="Page-1" stroke="none" stroke-width="1" fill="none" fill-rule="evenodd">
        <g id="Artboard-5" transform="translate(-3.000000, -4.000000)" fill="#1771BD">
            <g id="tactics" transform="translate(3.000000, 4.000000)">
                <g id="Group">
                    <path d="M96,16.4078624 C96,13.733484 93.8141857,11.5577396 91.1274298,11.5577396 L49.5550756,11.5577396 L49.5550756,9.44556265 C51.4812959,8.79791646 52.8725702,6.98335135 52.8725702,4.85012285 C52.8725702,2.17574447 50.6867559,0 48,0 C45.3132441,0 43.1274298,2.17574447 43.1274298,4.85012285 C43.1274298,6.98335135 44.5187041,8.79791646 46.4449244,9.44556265 L46.4449244,11.5577396 L4.87257019,11.5577396 C2.18581425,11.5577396 0,13.733484 0,16.4078624 C0,18.5410909 1.3912743,20.355656 3.3174946,21.0033022 L3.3174946,79.1498771 C3.3174946,81.8242555 5.50330886,84 8.19006479,84 L87.8099352,84 C90.4966911,84 92.6825054,81.8242555 92.6825054,79.1498771 L92.6825054,21.0033022 C94.6087257,20.355656 96,18.5410909 96,16.4078624 L96,16.4078624 Z M48,3.0958231 C48.9718186,3.0958231 49.762419,3.88278133 49.762419,4.85012285 C49.762419,5.81746437 48.9718186,6.6044226 48,6.6044226 C47.0281814,6.6044226 46.237581,5.81746437 46.237581,4.85012285 C46.237581,3.88278133 47.0281814,3.0958231 48,3.0958231 L48,3.0958231 Z M87.8099352,80.9041769 L8.19006479,80.9041769 C7.21824622,80.9041769 6.42764579,80.1172187 6.42764579,79.1498771 L6.42764579,21.2579853 L89.5723542,21.2579853 L89.5723542,79.1498771 C89.5723542,80.1172187 88.7817538,80.9041769 87.8099352,80.9041769 L87.8099352,80.9041769 Z M91.1274298,18.1621622 L4.87257019,18.1621622 C3.90075162,18.1621622 3.11015119,17.3752039 3.11015119,16.4078624 C3.11015119,15.4405209 3.90075162,14.6535627 4.87257019,14.6535627 L91.1274298,14.6535627 C92.0992484,14.6535627 92.8898488,15.4405209 92.8898488,16.4078624 C92.8898488,17.3752039 92.0992484,18.1621622 91.1274298,18.1621622 L91.1274298,18.1621622 Z" id="Shape"></path>
                    <path d="M35.8295637,65.3844029 L66.349892,35.0046781 L66.349892,39.5233415 C66.349892,40.3782015 67.0461512,41.0712531 67.9049676,41.0712531 C68.763784,41.0712531 69.4600432,40.3782015 69.4600432,39.5233415 L69.4600432,31.2678133 C69.4600432,30.4129533 68.763784,29.7199017 67.9049676,29.7199017 L59.6112311,29.7199017 C58.7524147,29.7199017 58.0561555,30.4129533 58.0561555,31.2678133 C58.0561555,32.1226732 58.7524147,32.8157248 59.6112311,32.8157248 L64.1508078,32.8157248 L33.6304795,63.1954496 C33.6126479,63.2129926 33.5973045,63.2321867 33.5805097,63.2503489 C32.9271706,62.9257002 32.1911015,62.7420147 31.412527,62.7420147 C28.7257711,62.7420147 26.5399568,64.9177592 26.5399568,67.5921376 C26.5399568,70.266516 28.7257711,72.4422604 31.412527,72.4422604 C34.0992829,72.4422604 36.2850972,70.266516 36.2850972,67.5921376 C36.2850972,66.8171499 36.1005616,66.0844717 35.7744104,65.4341425 C35.7928639,65.4174251 35.8119395,65.4021523 35.8295637,65.3844029 L35.8295637,65.3844029 Z M31.412527,69.3464373 C30.4407084,69.3464373 29.650108,68.5594791 29.650108,67.5921376 C29.650108,66.6247961 30.4407084,65.8378378 31.412527,65.8378378 C32.3843456,65.8378378 33.174946,66.6247961 33.174946,67.5921376 C33.174946,68.5594791 32.3843456,69.3464373 31.412527,69.3464373 L31.412527,69.3464373 Z" id="Shape"></path>
                    <path d="M26.9954903,38.9667125 C27.299041,39.2688649 27.6971404,39.4201474 28.0950324,39.4201474 C28.4929244,39.4201474 28.8910238,39.2690713 29.1945745,38.9667125 L31.412527,36.7589779 L33.6304795,38.9667125 C33.9340302,39.2688649 34.3321296,39.4201474 34.7300216,39.4201474 C35.1279136,39.4201474 35.526013,39.2690713 35.8295637,38.9667125 C36.4368726,38.3622015 36.4368726,37.3820639 35.8295637,36.7777592 L33.6116112,34.5700246 L35.8295637,32.3622899 C36.4368726,31.7577789 36.4368726,30.7776413 35.8295637,30.1733366 C35.2222549,29.5688256 34.237581,29.5688256 33.6304795,30.1733366 L31.412527,32.3810713 L29.1945745,30.1733366 C28.5872657,29.5688256 27.6025918,29.5688256 26.9954903,30.1733366 C26.3881814,30.7778477 26.3881814,31.7579853 26.9954903,32.3622899 L29.2134428,34.5700246 L26.9954903,36.7777592 C26.3881814,37.3820639 26.3881814,38.3624079 26.9954903,38.9667125 L26.9954903,38.9667125 Z" id="Shape"></path>
                    <path d="M43.5829633,38.9667125 C43.886514,39.2688649 44.2846134,39.4201474 44.6825054,39.4201474 C45.0803974,39.4201474 45.4784968,39.2690713 45.7820475,38.9667125 L48,36.7589779 L50.2179525,38.9667125 C50.5215032,39.2688649 50.9196026,39.4201474 51.3174946,39.4201474 C51.7153866,39.4201474 52.113486,39.2690713 52.4170367,38.9667125 C53.0243456,38.3622015 53.0243456,37.3820639 52.4170367,36.7777592 L50.1990842,34.5700246 L52.4170367,32.3622899 C53.0243456,31.7577789 53.0243456,30.7776413 52.4170367,30.1733366 C51.8097279,29.5688256 50.825054,29.5688256 50.2179525,30.1733366 L48,32.3810713 L45.7820475,30.1733366 C45.1747387,29.5688256 44.1900648,29.5688256 43.5829633,30.1733366 C42.9756544,30.7778477 42.9756544,31.7579853 43.5829633,32.3622899 L45.8009158,34.5700246 L43.5829633,36.7777592 C42.9756544,37.3820639 42.9756544,38.3624079 43.5829633,38.9667125 L43.5829633,38.9667125 Z" id="Shape"></path>
                    <path d="M26.9954903,55.477769 C27.299041,55.7799214 27.6971404,55.9312039 28.0950324,55.9312039 C28.4929244,55.9312039 28.8910238,55.7801278 29.1945745,55.477769 L31.412527,53.2700344 L33.6304795,55.477769 C33.9340302,55.7799214 34.3321296,55.9312039 34.7300216,55.9312039 C35.1279136,55.9312039 35.526013,55.7801278 35.8295637,55.477769 C36.4368726,54.873258 36.4368726,53.8931204 35.8295637,53.2888157 L33.6116112,51.0810811 L35.8295637,48.8733464 C36.4368726,48.2688354 36.4368726,47.2886978 35.8295637,46.6843931 C35.2222549,46.0798821 34.237581,46.0798821 33.6304795,46.6843931 L31.412527,48.8921278 L29.1945745,46.6843931 C28.5872657,46.0798821 27.6025918,46.0798821 26.9954903,46.6843931 C26.3881814,47.2889042 26.3881814,48.2690418 26.9954903,48.8733464 L29.2134428,51.0810811 L26.9954903,53.2888157 C26.3881814,53.8931204 26.3881814,54.8734644 26.9954903,55.477769 L26.9954903,55.477769 Z" id="Shape"></path>
                    <path d="M69.0045097,63.1954496 C68.3972009,62.5909386 67.412527,62.5909386 66.8054255,63.1954496 L64.587473,65.4031843 L62.3695205,63.1954496 C61.7622117,62.5909386 60.7775378,62.5909386 60.1704363,63.1954496 C59.5631274,63.7999607 59.5631274,64.7800983 60.1704363,65.3844029 L62.3883888,67.5921376 L60.1704363,69.7998722 C59.5631274,70.4043833 59.5631274,71.3845209 60.1704363,71.9888256 C60.473987,72.2909779 60.8720864,72.4422604 61.2699784,72.4422604 C61.6678704,72.4422604 62.0659698,72.2911843 62.3695205,71.9888256 L64.587473,69.7810909 L66.8054255,71.9888256 C67.1089762,72.2909779 67.5070756,72.4422604 67.9049676,72.4422604 C68.3028596,72.4422604 68.700959,72.2911843 69.0045097,71.9888256 C69.6118186,71.3843145 69.6118186,70.4041769 69.0045097,69.7998722 L66.7865572,67.5921376 L69.0045097,65.3844029 C69.6118186,64.7800983 69.6118186,63.7997543 69.0045097,63.1954496 L69.0045097,63.1954496 Z" id="Shape"></path>
                    <path d="M52.4170367,63.1954496 C51.8097279,62.5909386 50.825054,62.5909386 50.2179525,63.1954496 L48,65.4031843 L45.7820475,63.1954496 C45.1747387,62.5909386 44.1900648,62.5909386 43.5829633,63.1954496 C42.9756544,63.7999607 42.9756544,64.7800983 43.5829633,65.3844029 L45.8009158,67.5921376 L43.5829633,69.7998722 C42.9756544,70.4043833 42.9756544,71.3845209 43.5829633,71.9888256 C43.886514,72.2909779 44.2846134,72.4422604 44.6825054,72.4422604 C45.0803974,72.4422604 45.4784968,72.2911843 45.7820475,71.9888256 L48,69.7810909 L50.2179525,71.9888256 C50.5215032,72.2909779 50.9196026,72.4422604 51.3174946,72.4422604 C51.7153866,72.4422604 52.113486,72.2911843 52.4170367,71.9888256 C53.0243456,71.3843145 53.0243456,70.4041769 52.4170367,69.7998722 L50.1990842,67.5921376 L52.4170367,65.3844029 C53.0243456,64.7800983 53.0243456,63.7997543 52.4170367,63.1954496 L52.4170367,63.1954496 Z" id="Shape"></path>
                    <path d="M69.0045097,46.6843931 C68.3972009,46.0798821 67.412527,46.0798821 66.8054255,46.6843931 L64.587473,48.8921278 L62.3695205,46.6843931 C61.7622117,46.0798821 60.7775378,46.0798821 60.1704363,46.6843931 C59.5631274,47.2889042 59.5631274,48.2690418 60.1704363,48.8733464 L62.3883888,51.0810811 L60.1704363,53.2888157 C59.5631274,53.8933268 59.5631274,54.8734644 60.1704363,55.477769 C60.473987,55.7799214 60.8720864,55.9312039 61.2699784,55.9312039 C61.6678704,55.9312039 62.0659698,55.7801278 62.3695205,55.477769 L64.587473,53.2700344 L66.8054255,55.477769 C67.1089762,55.7799214 67.5070756,55.9312039 67.9049676,55.9312039 C68.3028596,55.9312039 68.700959,55.7801278 69.0045097,55.477769 C69.6118186,54.873258 69.6118186,53.8931204 69.0045097,53.2888157 L66.7865572,51.0810811 L69.0045097,48.8733464 C69.6118186,48.2690418 69.6118186,47.2886978 69.0045097,46.6843931 L69.0045097,46.6843931 Z" id="Shape"></path>
                </g>
            </g>
        </g>
    </g>
</svg>